<?xml version="1.0" encoding="utf-8"?>
<!-- Generator: Adobe Illustrator 24.0.2, SVG Export Plug-In . SVG Version: 6.00 Build 0)  -->
<svg version="1.1" id="Layer_1" xmlns="http://www.w3.org/2000/svg" xmlns:xlink="http://www.w3.org/1999/xlink" x="0px" y="0px"
	 viewBox="0 0 1086.9 393.9" style="enable-background:new 0 0 1086.9 393.9;" xml:space="preserve">
<style type="text/css">
	.st0{fill:#D8C394;}
	.st1{fill-rule:evenodd;clip-rule:evenodd;fill:#D8C394;}
	.st2{fill:none;stroke:#D8C394;stroke-width:0.57;stroke-miterlimit:22.93;}
</style>
<title>logo</title>
<g id="Layer_2_1_">
	<g id="Layer_1-2">
		<path class="st0" d="M949.3,109.5h18.3v0.9c-2.1-0.1-4.1,0.5-5.7,1.8c-1.1,1.1-1.6,3.4-1.6,6.9v86.6l-76-80.8v70.4
			c-0.1,1.7,0.1,3.3,0.5,5c0.2,0.9,0.7,1.7,1.4,2.2c1.5,0.6,3.1,1,4.8,1.2v0.9h-18.1v-0.9c3.3,0,5.3-0.6,6.1-1.8s1.2-3.9,1.2-8.3
			v-64.3c0.2-4.7-0.6-9.4-2.4-13.8c-1.6-3.6-5.2-5.2-10.9-5v-0.9h17.8l71.4,75.9v-67.2c0-3.6-0.6-5.8-1.9-6.6
			c-1.5-0.9-3.2-1.3-5-1.2L949.3,109.5z M815.7,201.2c6.8-0.1,13.5-1.9,19.4-5.3c6.2-3.4,11.4-8.4,15.1-14.5
			c3.5-5.7,5.4-12.3,5.4-19.1c0.1-8.9-2.5-17.7-7.4-25.2c-4.8-7.4-11.4-13.5-19.2-17.8c-6.6-3.9-14.1-6.1-21.7-6.4
			c-9.6,0.1-18.8,3.9-25.7,10.7c-7.5,6.7-11.7,16.4-11.5,26.5c-0.1,13.3,4.9,26,14.1,35.6C793.6,196.1,804.1,201.2,815.7,201.2
			L815.7,201.2z M816.2,107.9c13.4,0,24.3,4.1,32.8,12.2c8.4,7.9,13,19,12.7,30.4c0,15.7-4.9,28.9-14.7,39.6s-22.8,16-39.1,16.1
			c-13.2,0-24-4.3-32.4-12.9c-8.3-8.2-12.8-19.4-12.7-31.1c0.1-8.7,2.2-17.3,6.1-25.1C777.4,118.8,796,107.3,816.2,107.9z
			 M763.7,106.3l-4.5,11.4h-0.9c0.2-0.9,0.3-1.9,0.3-2.8c0.1-0.8-0.3-1.6-1.1-1.9c-1.1-0.3-2.2-0.5-3.4-0.4h-25V194
			c-0.2,2.3,0.1,4.7,0.8,6.9c0.4,1,1.2,1.9,2.2,2.3c1.5,0.4,3,0.5,4.5,0.5v0.9h-25.8v-0.9c3.2-0.2,5.2-0.8,6.1-1.8
			c0.8-1,1.2-3.2,1.2-6.5v-82.8h-23.8c-1.6-0.1-3.2,0-4.7,0.4c-0.7,0.3-1.1,1-1.1,2.1c0.1,0.9,0.2,1.8,0.5,2.6h-0.9l-4.5-11.4h0.9
			c0.4,1.1,1.2,2.1,2.3,2.7c1.6,0.4,3.2,0.6,4.9,0.5h63.2c1.8,0.1,3.6-0.1,5.4-0.5c1.2-0.4,2.1-1.4,2.4-2.7L763.7,106.3z
			 M671.2,110.6l4.5,11.9l-0.8,0.1c0,0-1.2-1.3-3.6-3.8c-2.3-2.4-5.1-4.4-8.2-5.7c-3.3-1.4-6.8-2.1-10.4-2
			c-5.7-0.3-11.2,1.7-15.4,5.6c-3.7,3.5-5.8,8.3-5.7,13.4c-0.1,3.2,0.9,6.4,2.6,9c1.8,2.6,5.4,5,11.2,7.2c9.8,3.2,16.4,5.7,20,7.4
			c4,2,7.6,4.9,10.4,8.5c3.5,4.3,5.2,9.7,5,15.3c0,2.5-0.3,5-0.9,7.4c-0.6,2.4-1.6,4.7-2.9,6.8c-1.3,2.2-2.9,4.2-4.8,6
			c-1.7,1.7-3.6,3-5.7,4.1c-2.9,1.2-6,1.9-9.2,2.1c-4.2,0.5-6.9,0.7-8.3,0.7h-25.3v-27.6h0.9c0.1,9.1,2.2,15.5,6.5,19.1
			c4.2,3.6,10.8,5.4,19.7,5.4c8.1,0,14.3-1.9,18.4-5.7c4-3.4,6.3-8.5,6.3-13.8c0.1-2.9-0.7-5.8-2.2-8.3c-1.6-2.4-3.7-4.5-6.1-6.1
			c-4.7-2.7-9.7-4.8-14.9-6.4c-5.3-1.7-10.5-3.9-15.3-6.7c-3.2-2.2-5.7-5.2-7.4-8.7c-1.9-3.6-2.9-7.7-3-11.8
			c-0.2-7,2.6-13.7,7.6-18.5c5.3-5.1,12.5-7.8,19.9-7.5c3.5,0,6.9,0.4,10.3,1.1c2.1,0.3,4.2,0.8,6.2,1.4
			C670.8,110.5,670.9,110.6,671.2,110.6L671.2,110.6z M615.9,109.5v0.9c-1.4-0.1-2.8,0.1-4.1,0.6c-1.2,0.3-2.2,1.1-2.7,2.3
			c-0.4,2.3-0.5,4.7-0.4,7v73c-0.1,2.4,0,4.9,0.5,7.2c0.3,0.9,1,1.7,1.8,2.2c1.5,0.7,3.2,1,4.9,0.9v0.9h-25.3v-0.9
			c3.2,0,5.2-0.6,6-1.8c0.8-1.2,1.2-4,1.2-8.4v-72.4c0-4.5-0.4-7.5-1.3-8.9c-0.9-1.4-2.8-2-5.8-1.8v-0.9L615.9,109.5z M546.2,206.2
			h-1.6l-26.3-72.6l-25.8,72.6H491l-30.9-85c-0.9-2.8-2.3-5.5-4-7.9c-1.5-1.9-3.8-2.9-6.2-2.8v-0.9h22.5v0.9c-2.2,0-3.3,0.8-3.3,2.4
			c0.1,1.5,0.5,3,1,4.3l25.2,69.2l20.7-58.4l-2.1-5.7c-1.8-4.8-3.5-8-5.1-9.6c-1.4-1.4-3.4-2.3-5.4-2.3v-0.9h22.2v0.9
			c-2.1,0-3.2,0.9-3.2,2.8c0.3,1.5,0.7,3,1.4,4.5l25.2,69l25-70.3c0-0.1,0.1-0.2,0.1-0.3l1-3.3c0-1.6-1.1-2.4-3.3-2.4v-0.9h13.9v0.9
			c-3.8,0-6.8,3.1-9,9.2L546.2,206.2z"/>
		<polygon class="st1" points="120.2,133.7 120.2,160.9 138.5,160.9 138.5,113.1 120.2,113.1 120.2,126.4 		"/>
		<path class="st1" d="M138.5,113.1v47.8h3.9c10-17,28.2-25.4,47.8-25.4s37.9,8.5,47.9,25.4h3.9v-47.8h-3.1
			c-29.2-20.3-68-20.3-97.2,0H138.5z"/>
		<polygon class="st1" points="242,113.1 242,160.9 260.3,160.9 260.3,133.7 260.3,126.4 260.3,113.1 		"/>
		<path class="st1" d="M261.8,126.4v7.3h68.1v-0.3h0.7v-0.7c1.9,0.1,3.6-1.4,3.7-3.3c0-0.1,0-0.1,0-0.2h0.6c0.6-0.8,1.5-1.3,2.5-1.3
			v-0.4h0.9v-1.2L261.8,126.4z"/>
		<path class="st1" d="M302.9,162.9h-71.5v1.2h1.1v0.4c0.9,0.1,1.7,0.6,2.2,1.3h0.6c0,2,1.6,3.5,3.6,3.5c0,0,0.1,0,0.1,0v0.7h0.7
			v0.3h0.3h89.6l0,0h0.3v-0.3h0.7v-0.7c1,0,1.9-0.3,2.6-1c0.7-0.7,1.1-1.6,1.1-2.5h0.6c0.6-0.8,1.5-1.3,2.5-1.3V164h0.9v-1.1H302.9z
			"/>
		<polygon class="st1" points="140.5,182.8 140.5,172.2 51,172.2 51,182.8 		"/>
		<polygon class="st1" points="329.6,182.8 329.6,172.2 240.1,172.2 240,182.8 		"/>
		<path class="st1" d="M140.5,184.7H50.7l-0.4,0.4v0.4c-0.5,0-0.9,0.4-1,0.8c-0.1,0.5,0,1,0.4,1.2l0.8,0.6c0.4,0.2,0.6,0.7,0.5,1.1
			h0.5v0.9H140v-0.9h0.5c0-0.5,0.2-1,0.6-1.2l0.6-0.5c0.5-0.4,0.6-1.1,0.2-1.6c-0.2-0.2-0.5-0.4-0.8-0.4v-0.4l-0.4-0.5L140.5,184.7z
			"/>
		<path class="st1" d="M329.6,184.7h-89.8l-0.4,0.4v0.4c-0.5,0-0.9,0.4-1,0.8c-0.1,0.5,0,1,0.4,1.2l0.8,0.6c0.4,0.2,0.6,0.7,0.5,1.1
			h0.5v0.9h88.5v-0.9h0.5c-0.1-0.5,0.2-1,0.6-1.2l0.6-0.5c0.5-0.4,0.6-1.1,0.2-1.6c-0.2-0.2-0.5-0.4-0.8-0.4v-0.4l-0.4-0.5
			L329.6,184.7z"/>
		<path class="st1" d="M51,170.2h89.8v-0.3h0.7v-0.7c2,0.1,3.6-1.4,3.7-3.4c0,0,0-0.1,0-0.1h0.6c0.5-0.7,1.3-1.2,2.2-1.3v-0.4h1.1
			v-1.2H42.3v1.2h0.9v0.4c1,0,1.9,0.5,2.5,1.3h0.6c0,1,0.4,1.9,1.1,2.5c0.7,0.7,1.6,1,2.6,0.9v0.7h0.7v0.3L51,170.2z"/>
		<rect x="53" y="135.6" class="st0" width="24.7" height="25.3"/>
		<rect x="302.9" y="135.6" class="st0" width="24.7" height="25.3"/>
		<rect x="77.6" y="135.6" class="st0" width="41.2" height="25.3"/>
		<rect x="261.8" y="135.6" class="st0" width="41.1" height="25.3"/>
		<path class="st1" d="M77.6,133.7h41.1v-7.3H42.3v1.2h0.9v0.4c1,0,1.9,0.5,2.5,1.3h0.6c0,2,1.6,3.5,3.6,3.5c0.1,0,0.1,0,0.2,0v0.7
			h0.7v0.3L77.6,133.7L77.6,133.7z"/>
		<rect x="242" y="192.3" class="st0" width="24.7" height="169.6"/>
		<rect x="302.9" y="192.3" class="st0" width="24.7" height="169.6"/>
		<rect x="113.9" y="192.3" class="st0" width="24.7" height="169.6"/>
		<rect x="53" y="192.3" class="st0" width="24.7" height="169.6"/>
		<path class="st1" d="M77.6,363.9H42.3v1.1h0.9v0.4c1,0,1.9,0.5,2.5,1.3h0.6c0,2,1.6,3.5,3.6,3.5c0.1,0,0.1,0,0.2,0v0.7h0.7v0.3
			h279.2v-0.3h0.7v-0.7c2,0.1,3.6-1.4,3.7-3.3c0,0,0-0.1,0-0.1h0.6c0.6-0.8,1.5-1.3,2.5-1.3V365h0.9v-1.2L77.6,363.9L77.6,363.9z"/>
		<path class="st1" d="M141.7,111.1c29.2-20.3,68-20.3,97.2,0h23.4v-1.5h0.5v-0.5h0.5v-0.7c1.9,0.1,3.6-1.4,3.7-3.3
			c0-0.1,0-0.1,0-0.2h0.6c0.6-0.8,1.5-1.3,2.5-1.3v-0.4h0.9V102h-29.2c-31.3-20.3-71.6-20.3-102.9,0h-29.3v1.2h0.9v0.4
			c1,0,1.9,0.5,2.5,1.3h0.6c0,2,1.6,3.5,3.6,3.5c0,0,0.1,0,0.1,0v0.7h0.5v0.5h0.5v1.5L141.7,111.1L141.7,111.1z"/>
		<path class="st0" d="M962.3,282.9c-0.4,2.4-1.6,4.7-3.3,6.4c-1.5,1.4-3.4,2.2-5.4,2.2c-2.4,0-4.7-1.1-6.3-3
			c-1.9-2.3-2.8-5.2-2.7-8.2c-0.1-3,0.9-5.9,3-8.1c1.8-2,4.4-3.1,7.1-3.1c1.8-0.1,3.7,0.5,5.1,1.6c1.2,0.8,1.9,2,2,3.4
			c0,0.5-0.2,1.1-0.6,1.4c-0.4,0.4-1,0.6-1.6,0.5c-0.8,0.1-1.5-0.3-2-0.9c-0.3-0.5-0.5-1.2-0.5-1.8c0-0.8-0.3-1.5-0.9-2.1
			c-0.6-0.5-1.4-0.8-2.2-0.7c-1.4,0-2.8,0.6-3.7,1.7c-1.3,1.7-1.9,3.8-1.8,6c-0.1,2.4,0.6,4.7,1.8,6.7c1,1.8,2.9,2.9,5,2.9
			c1.5,0,2.9-0.5,4.1-1.5c1.1-1.1,1.9-2.4,2.5-3.9L962.3,282.9z M930.8,291h-6.2c-1.9-2.8-3.7-5.7-5.2-8.6c-0.3-0.5-0.6-1.1-1-1.5
			c-0.3-0.3-0.8-0.5-1.2-0.5h-0.9v5.7c-0.1,1,0,2,0.3,2.9c0.2,0.4,0.5,0.8,0.9,0.9c0.8,0.2,1.5,0.3,2.3,0.3v0.9h-10.6v-0.9
			c0.9,0.1,1.9-0.1,2.6-0.7c0.5-1.1,0.7-2.2,0.6-3.4v-11.2c0.1-1,0-1.9-0.2-2.9c-0.2-0.3-0.5-0.6-0.8-0.8c-0.7-0.3-1.4-0.4-2.2-0.4
			v-0.9h10.6v0.9c-0.8-0.1-1.6,0-2.4,0.3c-0.3,0.2-0.6,0.4-0.8,0.7c-0.4,1-0.5,2.1-0.4,3.1v4.1h0.7c0.9,0,1.9-0.3,2.6-0.8
			c1.1-0.9,1.8-2,2.2-3.4c0.4-1.2,0.9-2.3,1.5-3.3c0.4-0.6,1-1.1,1.6-1.4c0.7-0.4,1.4-0.5,2.2-0.5c0.7,0,1.4,0.2,2,0.6
			c0.5,0.4,0.7,1,0.7,1.6c0,0.5-0.2,1-0.5,1.4c-0.4,0.4-0.9,0.6-1.5,0.6c-0.4,0-0.9-0.1-1.3-0.3c-0.5-0.2-1-0.3-1.5-0.3
			c-0.7,0-1.3,0.6-1.8,1.8c-0.3,0.9-0.7,1.8-1.1,2.7c-0.4,0.6-0.9,1.1-1.4,1.6c0.6,0.2,1.1,0.6,1.6,1.1c1.2,1.5,2.2,3.2,3.1,4.9
			c0.7,1.5,1.7,2.8,2.7,4.1c0.7,0.6,1.7,1,2.6,0.9L930.8,291z M879.1,276.5h9.8c0-1-0.2-1.9-0.5-2.9c-0.4-0.8-1-1.5-1.8-2
			c-0.7-0.5-1.5-0.7-2.4-0.7c-1.3,0-2.5,0.6-3.4,1.5C879.8,273.5,879.2,274.9,879.1,276.5L879.1,276.5z M879.1,277.8
			c-0.2,2.6,0.6,5.3,2.3,7.3c1.3,1.7,3.3,2.6,5.4,2.7c1.3,0,2.6-0.4,3.6-1.1c1.2-1,2.1-2.4,2.6-3.9l0.7,0.5
			c-0.3,2.2-1.3,4.2-2.8,5.8c-1.5,1.7-3.6,2.6-5.8,2.6c-2.5,0-4.9-1.1-6.5-3c-1.9-2.2-2.8-5-2.7-7.9c-0.2-3.1,0.8-6.1,2.8-8.5
			c1.8-2,4.3-3.1,7-3c2.2-0.1,4.3,0.8,5.8,2.3c1.6,1.7,2.4,4,2.3,6.3H879.1z M841.3,269.8h18.8v0.9c-0.7-0.1-1.4,0-2.1,0.3
			c-0.3,0.2-0.6,0.5-0.8,0.8c-0.3,1-0.4,2-0.3,3V286c-0.1,1,0,2,0.3,2.9c0.2,0.3,0.5,0.6,0.8,0.8c0.7,0.3,1.4,0.4,2.2,0.4v0.9h-10.9
			v-0.9c0.8,0,1.7,0,2.5-0.2c0.5-0.1,0.8-0.5,1.1-0.9c0.3-1,0.5-2,0.4-3v-14.7h-7.1v8.9c0.1,2.4-0.1,4.8-0.5,7.1
			c-0.2,1.2-0.9,2.3-1.8,3c-0.9,0.6-1.9,1-3,1c-2,0-2.9-0.8-2.9-2.4c0-0.5,0.1-1,0.5-1.4c0.3-0.3,0.8-0.5,1.2-0.5
			c0.6,0,1.1,0.3,1.5,0.7c0.6,0.6,1,0.9,1.4,0.9c0.7,0,1.2-0.6,1.5-1.8c0.4-2,0.6-4.1,0.5-6.1v-4.7c0.1-1.5,0-3-0.5-4.4
			c-0.3-0.5-1.2-0.8-2.6-0.9L841.3,269.8z M816.5,271.3h-9V286c-0.1,1,0,2,0.3,2.9c0.2,0.3,0.5,0.6,0.8,0.8c0.7,0.3,1.4,0.4,2.2,0.4
			v0.9h-10.2v-0.9c1.4,0,2.2-0.3,2.6-0.7c0.5-1,0.7-2.2,0.6-3.4v-11.2c0.1-1,0-2-0.3-2.9c-0.2-0.3-0.5-0.6-0.8-0.8
			c-0.7-0.3-1.4-0.4-2.2-0.4v-0.9h23.1v0.9c-0.7-0.1-1.4,0-2.1,0.3c-0.3,0.2-0.6,0.5-0.8,0.8c-0.3,1-0.4,2-0.3,3V286
			c-0.1,1,0,2,0.2,2.9c0.2,0.3,0.5,0.6,0.8,0.8c0.7,0.3,1.4,0.4,2.2,0.4v0.9h-10.2v-0.9c0.9,0.1,1.8-0.1,2.6-0.7
			c0.6-1,0.8-2.2,0.6-3.4L816.5,271.3z M771.5,285.5l6.6-15.6h7.1v0.9c-0.7-0.1-1.4,0-2.1,0.3c-0.3,0.2-0.6,0.5-0.8,0.8
			c-0.3,1-0.4,2-0.3,3V286c0,0.9,0,1.9,0.2,2.8c0.1,0.4,0.5,0.8,0.9,1c0.7,0.3,1.4,0.4,2.1,0.3v0.9h-10.2v-0.9
			c0.9,0.1,1.8-0.1,2.5-0.7c0.5-1,0.8-2.2,0.6-3.4v-12.7l-7.5,17.7h-0.8l-7.7-17.7V286c0,0.9,0,1.9,0.2,2.8c0.2,0.4,0.5,0.8,0.9,1
			c0.7,0.3,1.4,0.4,2.1,0.3v0.9h-8.1v-0.9c0.9,0.1,1.9-0.1,2.6-0.7c0.5-1.1,0.7-2.2,0.6-3.4v-11.2c0.1-1,0-2-0.3-2.9
			c-0.2-0.3-0.5-0.6-0.8-0.8c-0.7-0.3-1.4-0.4-2.2-0.4v-0.9h7.4L771.5,285.5z M731.8,270.7c-0.9,0-1.7,0.3-2.5,0.7
			c-0.9,0.6-1.6,1.5-2,2.6c-0.6,1.5-0.8,3.1-0.8,4.7c-0.1,2.8,0.5,5.5,1.8,7.9c0.8,2,2.7,3.3,4.8,3.3c1.4,0,2.8-0.7,3.6-1.8
			c1.1-1.9,1.7-4.1,1.4-6.3c0.2-3.1-0.7-6.2-2.4-8.8C735,271.6,733.5,270.7,731.8,270.7L731.8,270.7z M732.5,269.2
			c3-0.1,5.9,1.2,7.7,3.6c1.6,2,2.5,4.6,2.5,7.2c0,2-0.5,3.9-1.4,5.7c-1.5,3.6-5.1,5.9-9,5.9c-3,0.1-5.9-1.3-7.6-3.8
			c-1.6-2.1-2.4-4.6-2.4-7.2c0-2,0.5-4,1.4-5.8C725.3,271.4,728.8,269.2,732.5,269.2L732.5,269.2z M709.8,290.9h-6.2
			c-1.9-2.8-3.7-5.7-5.3-8.6c-0.3-0.5-0.6-1.1-1-1.5c-0.3-0.3-0.8-0.5-1.2-0.5h-0.9v5.7c-0.1,1,0,2,0.3,2.9c0.2,0.4,0.5,0.8,1,0.9
			c0.8,0.2,1.5,0.3,2.3,0.3v0.9h-10.6V290c1.4,0,2.3-0.3,2.6-0.7c0.5-1,0.7-2.2,0.6-3.4v-11.2c0.1-1,0-2-0.3-2.9
			c-0.2-0.3-0.5-0.6-0.8-0.8c-0.7-0.3-1.4-0.4-2.2-0.4v-0.9h10.6v0.9c-0.8-0.1-1.6,0-2.4,0.3c-0.3,0.2-0.6,0.4-0.8,0.7
			c-0.4,1-0.5,2.1-0.4,3.1v4.1h0.7c0.9,0,1.9-0.3,2.6-0.8c1.1-0.9,1.8-2,2.2-3.4c0.4-1.1,0.9-2.3,1.5-3.3c0.4-0.6,1-1.1,1.6-1.4
			c0.7-0.4,1.4-0.5,2.2-0.5c0.7,0,1.4,0.2,2,0.6c0.9,0.7,1,1.9,0.4,2.7c-0.4,0.5-1,0.8-1.6,0.8c-0.4,0-0.9-0.1-1.3-0.3
			c-0.5-0.2-1-0.3-1.5-0.3c-0.7,0-1.3,0.6-1.8,1.8c-0.3,0.9-0.7,1.8-1.2,2.7c-0.4,0.6-0.9,1.1-1.4,1.6c0.6,0.2,1.1,0.6,1.6,1.1
			c1.2,1.5,2.2,3.2,3.1,4.9c0.8,1.5,1.7,2.8,2.7,4.1c0.7,0.6,1.7,1,2.6,0.9L709.8,290.9z M632.1,284.5l9-10.7
			c0.1-0.9-0.2-1.7-0.7-2.5c-0.6-0.5-1.4-0.8-2.2-0.7v-0.9h9.9v0.9c-0.7-0.1-1.4,0-2.1,0.3c-0.3,0.2-0.6,0.5-0.8,0.8
			c-0.3,1-0.4,2-0.3,3V286c-0.1,1,0,2,0.3,2.9c0.2,0.3,0.5,0.6,0.8,0.8c0.7,0.3,1.4,0.4,2.2,0.4v0.9h-10.3v-0.9
			c0.9,0.1,1.8-0.1,2.6-0.7c0.6-1,0.8-2.2,0.7-3.4v-10l-9,10.7c-0.1,0.9,0.1,1.9,0.6,2.7c0.3,0.5,1.1,0.7,2.2,0.8v0.9H625v-0.9
			c1.4,0,2.3-0.3,2.6-0.7c0.5-1,0.7-2.2,0.6-3.4v-11.3c0.1-1,0-2-0.3-2.9c-0.2-0.3-0.5-0.6-0.8-0.8c-0.7-0.3-1.4-0.4-2.2-0.4v-0.9
			h10.2v0.9c-0.7-0.1-1.4,0-2.1,0.3c-0.3,0.2-0.6,0.5-0.8,0.8c-0.3,1-0.4,2-0.3,3L632.1,284.5z M629.1,261.4c0-0.5,0.1-0.9,0.5-1.3
			c0.3-0.3,0.7-0.5,1.1-0.5c1,0,1.9,1,2.7,2.9c0.2,0.8,0.8,1.6,1.5,2c0.5,0.3,1.1,0.4,1.7,0.4c0.8,0.1,1.6-0.2,2.2-0.6
			c0.6-0.6,1.1-1.4,1.4-2.2c0.7-1.6,1.4-2.4,2.4-2.4c0.4,0,0.9,0.2,1.2,0.5c0.3,0.3,0.5,0.8,0.5,1.2c-0.2,1.4-1,2.7-2.3,3.3
			c-1.5,1-3.4,1.6-5.2,1.5c-2,0.1-4-0.3-5.7-1.4C629.8,264.1,629.1,262.8,629.1,261.4L629.1,261.4z M598.6,270.7
			c-0.9,0-1.7,0.3-2.5,0.7c-0.9,0.6-1.6,1.5-2,2.6c-0.6,1.5-0.8,3.1-0.8,4.7c-0.1,2.8,0.5,5.5,1.8,7.9c0.8,2,2.7,3.3,4.8,3.3
			c1.4,0,2.8-0.7,3.6-1.8c1.1-1.9,1.6-4.1,1.4-6.3c0.2-3.1-0.7-6.2-2.4-8.8C601.7,271.6,600.2,270.7,598.6,270.7L598.6,270.7z
			 M599.3,269.2c3-0.1,5.9,1.2,7.7,3.6c1.6,2,2.5,4.6,2.5,7.2c0,2-0.5,3.9-1.4,5.7c-1.5,3.6-5.1,5.9-9,5.9c-3,0.1-5.9-1.3-7.6-3.8
			c-1.6-2.1-2.4-4.6-2.4-7.2c0-2,0.5-4,1.4-5.8C592.1,271.5,595.5,269.3,599.3,269.2L599.3,269.2z M554.5,269.8h18.8v0.9
			c-0.7-0.1-1.4,0-2.1,0.3c-0.3,0.2-0.6,0.5-0.8,0.8c-0.3,1-0.4,2-0.3,3V286c-0.1,1,0,2,0.3,2.9c0.2,0.3,0.5,0.6,0.8,0.8
			c0.7,0.3,1.4,0.4,2.2,0.4v0.9h-10.9v-0.9c0.8,0,1.6,0,2.4-0.2c0.5-0.1,0.9-0.5,1.1-0.9c0.3-1,0.5-2,0.4-3v-14.7h-7.2v8.9
			c0.1,2.4-0.1,4.8-0.4,7.1c-0.2,1.2-0.9,2.3-1.8,3c-0.9,0.7-1.9,1-3,1c-2,0-2.9-0.8-2.9-2.4c0-0.5,0.2-1,0.5-1.4
			c0.3-0.3,0.8-0.5,1.2-0.5c0.6,0,1.1,0.3,1.5,0.7c0.6,0.6,1,0.9,1.4,0.9c0.7,0,1.2-0.6,1.5-1.8c0.4-2,0.5-4.1,0.5-6.1v-4.7
			c0.1-1.5,0-3-0.5-4.4c-0.3-0.5-1.2-0.8-2.6-0.9L554.5,269.8z M520.6,284.5l9-10.7c0.1-0.9-0.2-1.7-0.7-2.5
			c-0.6-0.5-1.4-0.8-2.2-0.7v-0.9h9.9v0.9c-0.7-0.1-1.4,0-2.1,0.3c-0.3,0.2-0.6,0.5-0.8,0.8c-0.3,1-0.4,2-0.3,3V286
			c-0.1,1,0,2,0.3,2.9c0.2,0.3,0.5,0.6,0.8,0.8c0.7,0.3,1.4,0.4,2.2,0.4v0.9h-10.2v-0.9c0.9,0.1,1.8-0.1,2.6-0.7
			c0.6-1,0.8-2.2,0.7-3.4v-10l-9,10.7c-0.1,0.9,0.1,1.9,0.6,2.7c0.3,0.5,1.1,0.7,2.2,0.8v0.9h-9.9v-0.9c1.4,0,2.3-0.3,2.6-0.7
			c0.5-1,0.7-2.2,0.6-3.4v-11.3c0.1-1,0-2-0.3-2.9c-0.2-0.3-0.5-0.6-0.8-0.8c-0.7-0.3-1.4-0.4-2.2-0.4v-0.9h10.3v0.9
			c-0.7-0.1-1.4,0-2.1,0.3c-0.3,0.2-0.6,0.5-0.8,0.8c-0.3,1-0.4,2-0.3,3V284.5z M478,291v-0.9c1,0,2-0.4,2.7-1.1
			c0.5-1.2,0.7-2.5,0.6-3.8v-4.8c-0.7-0.1-1.4,0.1-2,0.3c-0.7,0.8-1.3,1.7-1.7,2.6l-4,7.7h-6.2v-0.8c0.9,0,1.8-0.4,2.4-1
			c0.9-1.1,1.7-2.3,2.2-3.6c0.8-1.9,1.9-3.6,3.1-5.2c0.6-0.6,1.3-0.9,2.1-1c-1.3-0.9-2.3-2.3-2.6-3.8c-0.3-0.7-0.6-1.4-0.9-2
			c-0.2-0.3-0.6-0.5-1-0.5c-0.4,0-0.8,0.1-1.2,0.3c-0.5,0.2-1.1,0.4-1.6,0.4c-0.6,0-1.1-0.2-1.4-0.6c-0.4-0.4-0.5-1-0.5-1.5
			c0-0.6,0.3-1.2,0.8-1.5c0.5-0.4,1.2-0.5,1.8-0.5c1.1-0.1,2.2,0.3,3,1.1c1,1.1,1.8,2.5,2.3,3.9c0.4,1.4,1.1,2.7,2.2,3.6
			c0.9,0.6,2,0.9,3.1,0.8v-3.5c0.1-1.3-0.1-2.7-0.6-3.9c-0.7-0.7-1.7-1.1-2.7-1.1v-0.9h10.4v0.9c-1,0-2,0.4-2.7,1.1
			c-0.5,1.2-0.7,2.5-0.6,3.8v3.5c1.1,0,2.1-0.2,3.1-0.8c1.1-1,1.9-2.2,2.2-3.6c0.4-1.7,1.3-3.2,2.6-4.3c0.8-0.5,1.7-0.8,2.6-0.8
			c0.7-0.1,1.5,0.2,2.1,0.6c0.4,0.4,0.7,0.9,0.7,1.5c0,0.5-0.2,1.1-0.5,1.5c-0.4,0.4-0.9,0.6-1.5,0.6c-0.6,0-1.1-0.2-1.6-0.4
			c-0.3-0.2-0.7-0.3-1.1-0.3c-0.4,0-0.8,0.2-1,0.5c-0.4,0.6-0.7,1.3-0.9,2c-0.4,1.5-1.3,2.9-2.6,3.8c0.8,0.1,1.6,0.4,2.2,1
			c1.2,1.6,2.3,3.3,3.1,5.1c0.6,1.3,1.4,2.6,2.3,3.7c0.7,0.6,1.5,0.9,2.4,1v0.8h-6.3l-4-7.7c-0.4-1-1-1.8-1.7-2.6
			c-0.6-0.3-1.3-0.4-2-0.3v4.8c-0.2,1.4,0.1,2.8,0.7,4c0.7,0.6,1.7,0.9,2.6,1v0.9L478,291z"/>
		<path class="st0" d="M157.4,255.5l14.7,42.4c0.2-0.4,0.3-0.7,0.5-1c0.2-0.4,0.3-0.7,0.4-1.1c0.1-0.4,0.2-0.8,0.2-1.1
			c0-1-0.2-2-0.6-3L160,255.5c-0.6-1.8-1.3-3.6-2.1-5.3c-0.4-0.8-1-1.5-1.8-2c-0.9-0.4-2-0.6-3-0.4c1,0.7,1.7,1.6,2.2,2.6
			C156.1,252,156.8,253.7,157.4,255.5 M188.1,254.9l15,42.8c0.6-1.1,1-2.4,1.1-3.6c-0.1-1-0.4-2-0.8-3l-13.1-37.2
			c-0.4-1.3-1-2.6-1.6-3.8c-0.4-0.7-0.9-1.2-1.6-1.6c-1-0.4-2.1-0.7-3.2-0.6C185.5,248.9,186.8,251.3,188.1,254.9L188.1,254.9z
			 M222.6,247.7h-7.5c1.1,0.6,1.9,1.5,2.5,2.6c0.5,1.1,0.8,2.3,0.8,3.5c0.5-1.2,1.1-2.4,1.8-3.4
			C220.8,249.3,221.6,248.5,222.6,247.7L222.6,247.7z M210.4,245.7h17v2.1c-2,0.9-3.6,2.4-4.9,4.2c-1.7,2.6-3.1,5.5-4,8.4L204.8,300
			h-2.2L188,258.4L173.5,300h-2l-14.4-41.6c-1.3-3.7-2.2-6.1-2.7-7.3c-0.4-1-1.1-1.9-2-2.6c-1.1-0.6-2.4-0.9-3.6-0.8v-2.1H171v2.1
			l-0.4-0.1c-0.2,0-0.3,0-0.5,0c-3.4,0-5.1,1-5.1,3.1c0.2,1.8,0.6,3.6,1.2,5.3l10.2,29.3l10.4-29.9c-0.4-1.6-1-3.1-1.8-4.6
			c-0.5-0.9-1.1-1.6-1.9-2.2c-0.5-0.4-1-0.6-1.6-0.7c-0.5-0.1-1.4-0.1-2.8-0.2v-2.1h22.9v2.1c-1.5,0-2.9,0.2-4.3,0.6
			c-1,0.3-1.7,1.2-1.6,2.3c0.3,2.3,0.9,4.6,1.8,6.7l9.8,28l8.1-23.2c0.5-1.3,0.9-2.6,1.3-4c0.3-1.1,0.5-2.3,0.5-3.5
			c0.1-1.8-0.5-3.7-1.7-5.1c-1.5-1.2-3.3-1.9-5.2-1.9L210.4,245.7z"/>
		<path class="st2" d="M138.5,192.3L242,361.9"/>
		<line class="st2" x1="138.5" y1="240.9" x2="213.6" y2="363.9"/>
		<line class="st2" x1="138.5" y1="286.5" x2="185.7" y2="363.9"/>
		<line class="st2" x1="138.5" y1="333.3" x2="157.2" y2="363.9"/>
		<path class="st2" d="M138.5,149L242,318.7"/>
		<path class="st2" d="M138.5,107L242,276.7"/>
		<line class="st2" x1="186.7" y1="135.6" x2="242" y2="226.2"/>
		<path class="st2" d="M248.5,236.4L317,348.5"/>
		<line class="st2" x1="248.5" y1="268.5" x2="298.1" y2="349.8"/>
		<line class="st2" x1="248.5" y1="298.7" x2="279.7" y2="349.8"/>
		<line class="st2" x1="248.5" y1="329.6" x2="260.9" y2="349.8"/>
		<path class="st2" d="M248.5,207.9L317,320"/>
		<path class="st2" d="M248.5,180.1L317,292.2"/>
		<line class="st2" x1="280.4" y1="199" x2="317" y2="258.9"/>
		<path class="st2" d="M62.7,236.4l68.4,112.1"/>
		<line class="st2" x1="62.7" y1="268.5" x2="112.3" y2="349.8"/>
		<line class="st2" x1="62.7" y1="298.7" x2="93.9" y2="349.8"/>
		<line class="st2" x1="62.7" y1="329.6" x2="75.1" y2="349.8"/>
		<path class="st2" d="M62.7,207.9L131.1,320"/>
		<path class="st2" d="M62.7,180.1l68.4,112.1"/>
		<line class="st2" x1="94.6" y1="199" x2="131.1" y2="258.9"/>
		<path class="st2" d="M242,192.3L138.5,361.9"/>
		<line class="st2" x1="242" y1="240.9" x2="167" y2="363.9"/>
		<line class="st2" x1="242" y1="286.5" x2="194.8" y2="363.9"/>
		<line class="st2" x1="242" y1="333.3" x2="223.4" y2="363.9"/>
		<path class="st2" d="M242,149L138.5,318.7"/>
		<path class="st2" d="M242,107L138.5,276.7"/>
		<line class="st2" x1="193.8" y1="135.6" x2="138.5" y2="226.2"/>
		<path class="st2" d="M317,236.4l-68.5,112.1"/>
		<line class="st2" x1="317" y1="268.5" x2="267.4" y2="349.8"/>
		<line class="st2" x1="317" y1="298.7" x2="285.8" y2="349.8"/>
		<line class="st2" x1="317" y1="329.6" x2="304.6" y2="349.8"/>
		<path class="st2" d="M317,207.9L248.5,320"/>
		<path class="st2" d="M317,180.1l-68.5,112.1"/>
		<line class="st2" x1="285.1" y1="199" x2="248.5" y2="258.9"/>
		<path class="st2" d="M131.1,236.4L62.7,348.5"/>
		<line class="st2" x1="131.1" y1="268.5" x2="81.6" y2="349.8"/>
		<line class="st2" x1="131.1" y1="298.7" x2="100" y2="349.8"/>
		<line class="st2" x1="131.1" y1="329.6" x2="118.8" y2="349.8"/>
		<path class="st2" d="M131.1,207.9L62.7,320"/>
		<path class="st2" d="M131.1,180.1L62.7,292.2"/>
		<line class="st2" x1="99.3" y1="199" x2="62.7" y2="258.9"/>
		<path class="st1" d="M188.5,10.5c2.9,0,5.2-2.3,5.2-5.2c0-2.9-2.3-5.2-5.2-5.2s-5.2,2.3-5.2,5.2c0,0,0,0,0,0
			C183.3,8.1,185.6,10.5,188.5,10.5"/>
		<path class="st1" d="M219.4,17.7c2.4,0,4.3-1.9,4.3-4.3s-1.9-4.3-4.3-4.3c-2.4,0-4.3,1.9-4.3,4.3c0,0,0,0,0,0
			C215.2,15.8,217.1,17.7,219.4,17.7"/>
		<path class="st1" d="M244.6,29.2c1.8,0,3.2-1.4,3.2-3.2c0-1.8-1.4-3.2-3.2-3.2c-1.8,0-3.2,1.4-3.2,3.2
			C241.4,27.8,242.8,29.2,244.6,29.2"/>
		<path class="st1" d="M271.8,43c1.3,0,2.4-1.1,2.4-2.4c0-1.3-1.1-2.4-2.4-2.4c-1.3,0-2.4,1.1-2.4,2.4c0,0,0,0,0,0
			C269.4,42,270.5,43,271.8,43"/>
		<path class="st1" d="M157.6,17.7c-2.4,0-4.3-1.9-4.3-4.3s1.9-4.3,4.3-4.3c2.4,0,4.3,1.9,4.3,4.3c0,0,0,0,0,0
			C161.8,15.8,159.9,17.7,157.6,17.7"/>
		<path class="st1" d="M132.4,29.2c-1.8,0-3.2-1.4-3.2-3.2c0-1.8,1.4-3.2,3.2-3.2c1.8,0,3.2,1.4,3.2,3.2
			C135.6,27.8,134.2,29.2,132.4,29.2"/>
		<path class="st1" d="M105.2,43c-1.3,0-2.4-1.1-2.4-2.4s1.1-2.4,2.4-2.4c1.3,0,2.4,1.1,2.4,2.4S106.5,43,105.2,43L105.2,43"/>
		<path class="st1" d="M189.5,62.5c1.9-0.3,3.1-2.1,2.8-4s-2.1-3.1-4-2.8c-1.9,0.3-3.1,2.1-2.8,4c0,0,0,0,0,0
			C185.8,61.6,187.6,62.8,189.5,62.5 M210.4,63.6c1.5-0.3,2.5-1.7,2.3-3.3c-0.3-1.5-1.7-2.5-3.3-2.3c-1.5,0.3-2.5,1.7-2.3,3.3
			C207.4,62.8,208.9,63.8,210.4,63.6z M228.1,68.1c1.1-0.2,1.9-1.3,1.7-2.4c-0.2-1.1-1.3-1.9-2.4-1.7c-1.1,0.2-1.9,1.3-1.7,2.4
			c0,0,0,0,0,0C225.9,67.6,226.9,68.3,228.1,68.1z M247.3,74c0.9-0.2,1.4-1,1.3-1.8c-0.2-0.9-1-1.4-1.8-1.3c-0.9,0.2-1.4,1-1.3,1.8
			c0,0,0,0,0,0C245.6,73.6,246.5,74.2,247.3,74z M167.5,63.4c-1.5-0.3-2.5-1.7-2.3-3.3c0.3-1.5,1.7-2.5,3.3-2.3
			c1.5,0.3,2.5,1.7,2.3,3.3c0,0,0,0,0,0C170.5,62.6,169,63.7,167.5,63.4L167.5,63.4z M149.8,68c-1.1-0.2-1.9-1.3-1.7-2.4
			c0.2-1.1,1.3-1.9,2.4-1.7s1.9,1.3,1.7,2.4c0,0,0,0,0,0C152,67.4,150.9,68.2,149.8,68z M130.6,73.8c-0.9-0.2-1.4-1-1.3-1.8
			c0.2-0.9,1-1.4,1.8-1.3c0.9,0.2,1.4,1,1.3,1.8C132.2,73.4,131.4,73.9,130.6,73.8L130.6,73.8z M216.6,21.5
			c-15.7,24.9-25.6,17.6-28-8.7c-2.4,26.3-12.3,33.7-28,8.7c4.6,22-7.6,36.7-25.8,11.4c5.6,36.5-16.1,23.5-29.1,9.6
			c6.6,12.5,15,24.9,22.1,37.1c42.1-16.5,79.7-16.5,121.8,0c7.1-12.2,13.7-21.2,20.2-33.7C257.6,59,238,68.4,242.4,32.8
			C224.1,58.1,211.9,43.4,216.6,21.5L216.6,21.5z"/>
		<path class="st1" d="M187.6,70.8c19.2,0,38.4,3.8,58.6,11.5l1,0.4l-0.5,0.9l-0.7,1.2l-0.7,1.2l-0.4,0.7l-0.7-0.3
			c-19.6-7.7-38.1-11.5-56.6-11.5c-19.9,0-38.5,4.4-56.9,11.6l-2.1-4.1C147.8,75.2,166.9,70.8,187.6,70.8"/>
		<path class="st0" d="M710.8,229.6c7,0.1,13.8,1.8,20,5h3.4c0.1-1.3,1.2-2.3,2.5-2.3c1.2-0.1,2.3,0.8,2.5,2h4.6
			c4-4.7,11.1-5.3,11.1-5.3c5.2,3.6,11.4,5.5,17.8,5.4c0,0,16.7,0.9,20.5-5.4l257.3,6.1l-257.3,6.1c-3.9-6.3-20.5-5.4-20.5-5.4
			c-6.3,0-12.5,1.9-17.8,5.4c0,0-7.2-0.6-11.3-5.3h-4.7c-0.2,1.2-1.3,2.1-2.5,2c-1.3,0-2.4-1-2.5-2.3h-3.4
			c-12.4,6.6-27.2,6.6-39.6,0h-3.4c-0.1,1.3-1.2,2.3-2.5,2.3c-1.2,0.1-2.3-0.8-2.5-2H678c-4,4.7-11.3,5.3-11.3,5.3
			c-5.2-3.6-11.4-5.5-17.8-5.4c0,0-16.7-0.9-20.5,5.4l-257.3-6.1l257.3-6.1c3.9,6.3,20.5,5.4,20.5,5.4c6.3,0,12.5-1.8,17.8-5.4
			c0,0,7,0.6,11.1,5.3h4.7c0.2-1.2,1.3-2.1,2.5-2c1.3,0,2.4,1,2.5,2.3h3.4C697,231.4,703.8,229.7,710.8,229.6"/>
	</g>
</g>
</svg>
