<?xml version="1.0" encoding="utf-8"?>
<!-- Generator: Adobe Illustrator 24.0.2, SVG Export Plug-In . SVG Version: 6.00 Build 0)  -->
<svg version="1.1" id="Layer_1" xmlns="http://www.w3.org/2000/svg" xmlns:xlink="http://www.w3.org/1999/xlink" x="0px" y="0px"
	 viewBox="0 0 55 77" style="enable-background:new 0 0 55 77;" xml:space="preserve">
<style type="text/css">
	.st0{fill:#9F8054;}
	.st1{fill-rule:evenodd;clip-rule:evenodd;fill:#FFFFFF;}
	.st2{fill:#FFFFFF;}
	.st3{fill:#FFFFFF;stroke:#D8C394;stroke-width:0.1;stroke-miterlimit:22.93;}
</style>
<path class="st0" d="M27.2,0C14.7,0,0.1,7.6,0.1,27.1C0.1,40.2,21,69.4,27.2,77c5.5-7.6,27.1-36.1,27.1-49.9C54.3,7.6,39.7,0,27.2,0
	z"/>
<g id="Layer_1-2">
	<polygon class="st1" points="20.1,22.4 20.1,25.1 21.9,25.1 21.9,20.3 20.1,20.3 20.1,21.6 	"/>
	<path class="st1" d="M21.9,20.3v4.9h0.4c1-1.7,2.9-2.6,4.9-2.6s3.8,0.9,4.9,2.6h0.4v-4.9h-0.3c-3-2.1-6.9-2.1-9.9,0
		C22.3,20.3,21.9,20.3,21.9,20.3z"/>
	<polygon class="st1" points="32.4,20.3 32.4,25.1 34.3,25.1 34.3,22.4 34.3,21.6 34.3,20.3 	"/>
	<path class="st1" d="M34.5,21.6v0.7h6.9v0h0.1v-0.1c0.2,0,0.4-0.1,0.4-0.3c0,0,0,0,0,0h0.1c0.1-0.1,0.2-0.1,0.3-0.1v0h0.1v-0.1
		L34.5,21.6z"/>
	<path class="st1" d="M38.6,25.3h-7.3v0.1h0.1v0c0.1,0,0.2,0.1,0.2,0.1h0.1c0,0.2,0.2,0.4,0.4,0.4h0v0.1h0.1v0h0h9.1l0,0h0v0h0.1V26
		c0.1,0,0.2,0,0.3-0.1c0.1-0.1,0.1-0.2,0.1-0.3h0.1c0.1-0.1,0.2-0.1,0.3-0.1v-0.1h0.1v-0.1H38.6z"/>
	<polygon class="st1" points="22.1,27.4 22.1,26.3 13.1,26.3 13.1,27.4 	"/>
	<polygon class="st1" points="41.3,27.4 41.3,26.3 32.2,26.3 32.2,27.4 	"/>
	<path class="st1" d="M22.1,27.6H13l0,0v0c-0.1,0-0.1,0-0.1,0.1c0,0.1,0,0.1,0,0.1l0.1,0.1c0,0,0.1,0.1,0.1,0.1h0.1v0.1h9V28h0.1
		c0-0.1,0-0.1,0.1-0.1l0.1-0.1c0.1,0,0.1-0.1,0-0.2C22.3,27.7,22.2,27.6,22.1,27.6L22.1,27.6L22.1,27.6L22.1,27.6z"/>
	<path class="st1" d="M41.3,27.6h-9.1l0,0v0c-0.1,0-0.1,0-0.1,0.1c0,0.1,0,0.1,0,0.1l0.1,0.1c0,0,0.1,0.1,0.1,0.1h0.1v0.1h9V28h0.1
		c0-0.1,0-0.1,0.1-0.1l0.1-0.1c0.1,0,0.1-0.1,0-0.2C41.5,27.7,41.4,27.6,41.3,27.6L41.3,27.6L41.3,27.6L41.3,27.6z"/>
	<path class="st1" d="M13.1,26.1h9.1v0h0.1V26c0.2,0,0.4-0.1,0.4-0.3v0h0.1c0.1-0.1,0.1-0.1,0.2-0.1v0H23v-0.1H12.2v0.1h0.1v0
		c0.1,0,0.2,0.1,0.3,0.1h0.1c0,0.1,0,0.2,0.1,0.3C12.8,26,12.8,26,13,26V26L13.1,26.1L13.1,26.1L13.1,26.1z"/>
	<rect x="13.3" y="22.6" class="st2" width="2.5" height="2.6"/>
	<rect x="38.6" y="22.6" class="st2" width="2.5" height="2.6"/>
	<rect x="15.8" y="22.6" class="st2" width="4.2" height="2.6"/>
	<rect x="34.5" y="22.6" class="st2" width="4.2" height="2.6"/>
	<path class="st1" d="M15.8,22.4h4.2v-0.7h-7.8v0.1h0.1v0c0.1,0,0.2,0.1,0.3,0.1h0.1c0,0.2,0.2,0.4,0.4,0.4c0,0,0,0,0,0v0.1H13v0
		L15.8,22.4L15.8,22.4z"/>
	<rect x="32.4" y="28.3" class="st2" width="2.5" height="17.2"/>
	<rect x="38.6" y="28.3" class="st2" width="2.5" height="17.2"/>
	<rect x="19.4" y="28.3" class="st2" width="2.5" height="17.2"/>
	<rect x="13.3" y="28.3" class="st2" width="2.5" height="17.2"/>
	<path class="st1" d="M15.8,45.7h-3.6v0.1h0.1v0c0.1,0,0.2,0.1,0.3,0.1h0.1c0,0.2,0.2,0.4,0.4,0.4c0,0,0,0,0,0v0.1H13v0h28.3v0h0.1
		v-0.1c0.2,0,0.4-0.1,0.4-0.3v0h0.1c0.1-0.1,0.2-0.1,0.3-0.1v-0.1h0.1v-0.1L15.8,45.7L15.8,45.7z"/>
	<path class="st1" d="M22.3,20.1c3-2.1,6.9-2.1,9.9,0h2.4v-0.2h0.1v-0.1h0.1v-0.1c0.2,0,0.4-0.1,0.4-0.3c0,0,0,0,0,0H35
		c0.1-0.1,0.2-0.1,0.3-0.1v0h0.1v-0.1h-3c-3.2-2.1-7.3-2.1-10.4,0h-3v0.1h0.1v0c0.1,0,0.2,0.1,0.3,0.1h0.1c0,0.2,0.2,0.4,0.4,0.4h0
		v0.1h0.1v0.1h0.1v0.2H22.3L22.3,20.1z"/>
	<path class="st2" d="M23.9,34.7l1.5,4.3c0,0,0-0.1,0.1-0.1c0,0,0-0.1,0-0.1c0,0,0-0.1,0-0.1c0-0.1,0-0.2-0.1-0.3l-1.3-3.7
		c-0.1-0.2-0.1-0.4-0.2-0.5c0-0.1-0.1-0.2-0.2-0.2c-0.1,0-0.2-0.1-0.3,0c0.1,0.1,0.2,0.2,0.2,0.3C23.7,34.4,23.8,34.6,23.9,34.7
		 M27,34.7l1.5,4.3c0.1-0.1,0.1-0.2,0.1-0.4c0-0.1,0-0.2-0.1-0.3l-1.3-3.8c0-0.1-0.1-0.3-0.2-0.4c0-0.1-0.1-0.1-0.2-0.2
		c-0.1,0-0.2-0.1-0.3-0.1C26.7,34.1,26.8,34.3,27,34.7L27,34.7z M30.5,34h-0.8c0.1,0.1,0.2,0.2,0.3,0.3c0.1,0.1,0.1,0.2,0.1,0.4
		c0.1-0.1,0.1-0.2,0.2-0.3C30.3,34.1,30.4,34,30.5,34L30.5,34z M29.2,33.7H31V34c-0.2,0.1-0.4,0.2-0.5,0.4c-0.2,0.3-0.3,0.6-0.4,0.9
		l-1.4,4h-0.2L27,35l-1.5,4.2h-0.2L23.8,35c-0.1-0.4-0.2-0.6-0.3-0.7c0-0.1-0.1-0.2-0.2-0.3C23.2,34,23.1,33.9,23,34v-0.2h2.3V34
		l0,0c0,0,0,0-0.1,0c-0.3,0-0.5,0.1-0.5,0.3c0,0.2,0.1,0.4,0.1,0.5l1,3l1.1-3c0-0.2-0.1-0.3-0.2-0.5c-0.1-0.1-0.1-0.2-0.2-0.2
		c-0.1,0-0.1-0.1-0.2-0.1c-0.1,0-0.1,0-0.3,0v-0.2h2.3V34c-0.2,0-0.3,0-0.4,0.1c-0.1,0-0.2,0.1-0.2,0.2c0,0.2,0.1,0.5,0.2,0.7l1,2.8
		l0.8-2.4c0.1-0.1,0.1-0.3,0.1-0.4c0-0.1,0.1-0.2,0.1-0.4c0-0.2-0.1-0.4-0.2-0.5c-0.2-0.1-0.3-0.2-0.5-0.2L29.2,33.7z"/>
	<path class="st3" d="M21.9,28.3l10.5,17.2"/>
	<line class="st3" x1="21.9" y1="33.3" x2="29.6" y2="45.7"/>
	<line class="st3" x1="21.9" y1="37.9" x2="26.7" y2="45.7"/>
	<line class="st3" x1="21.9" y1="42.6" x2="23.8" y2="45.7"/>
	<path class="st3" d="M21.9,23.9l10.5,17.2"/>
	<path class="st3" d="M21.9,19.7l10.5,17.2"/>
	<line class="st3" x1="26.8" y1="22.6" x2="32.4" y2="31.8"/>
	<path class="st3" d="M33.1,32.8l7,11.4"/>
	<line class="st3" x1="33.1" y1="36.1" x2="38.1" y2="44.3"/>
	<line class="st3" x1="33.1" y1="39.1" x2="36.3" y2="44.3"/>
	<line class="st3" x1="33.1" y1="42.3" x2="34.4" y2="44.3"/>
	<path class="st3" d="M33.1,29.9l7,11.4"/>
	<path class="st3" d="M33.1,27.1l7,11.4"/>
	<line class="st3" x1="36.3" y1="29" x2="40.1" y2="35.1"/>
	<path class="st3" d="M14.2,32.8l6.9,11.4"/>
	<line class="st3" x1="14.2" y1="36.1" x2="19.3" y2="44.3"/>
	<line class="st3" x1="14.2" y1="39.1" x2="17.4" y2="44.3"/>
	<line class="st3" x1="14.2" y1="42.3" x2="15.5" y2="44.3"/>
	<path class="st3" d="M14.2,29.9l6.9,11.4"/>
	<path class="st3" d="M14.2,27.1l6.9,11.4"/>
	<line class="st3" x1="17.5" y1="29" x2="21.2" y2="35.1"/>
	<path class="st3" d="M32.4,28.3L21.9,45.5"/>
	<line class="st3" x1="32.4" y1="33.3" x2="24.8" y2="45.7"/>
	<line class="st3" x1="32.4" y1="37.9" x2="27.6" y2="45.7"/>
	<line class="st3" x1="32.4" y1="42.6" x2="30.6" y2="45.7"/>
	<path class="st3" d="M32.4,23.9L21.9,41.2"/>
	<path class="st3" d="M32.4,19.7L21.9,36.9"/>
	<line class="st3" x1="27.5" y1="22.6" x2="21.9" y2="31.8"/>
	<path class="st3" d="M40.1,32.8l-7,11.4"/>
	<line class="st3" x1="40.1" y1="36.1" x2="35" y2="44.3"/>
	<line class="st3" x1="40.1" y1="39.1" x2="36.9" y2="44.3"/>
	<line class="st3" x1="40.1" y1="42.3" x2="38.8" y2="44.3"/>
	<path class="st3" d="M40.1,29.9l-7,11.4"/>
	<path class="st3" d="M40.1,27.1l-7,11.4"/>
	<line class="st3" x1="36.8" y1="29" x2="33.1" y2="35.1"/>
	<path class="st3" d="M21.2,32.8l-6.9,11.4"/>
	<line class="st3" x1="21.2" y1="36.1" x2="16.2" y2="44.3"/>
	<line class="st3" x1="21.2" y1="39.1" x2="18" y2="44.3"/>
	<line class="st3" x1="21.2" y1="42.3" x2="19.9" y2="44.3"/>
	<path class="st3" d="M21.2,29.9l-6.9,11.4"/>
	<path class="st3" d="M21.2,27.1l-6.9,11.4"/>
	<line class="st3" x1="18" y1="29" x2="14.2" y2="35.1"/>
	<path class="st1" d="M27,9.9c0.3,0,0.5-0.2,0.5-0.5c0-0.3-0.2-0.5-0.5-0.5c-0.3,0-0.5,0.2-0.5,0.5l0,0C26.5,9.6,26.7,9.9,27,9.9"/>
	<path class="st1" d="M30.1,10.6c0.2,0,0.4-0.2,0.4-0.4s-0.2-0.4-0.4-0.4s-0.4,0.2-0.4,0.4l0,0C29.7,10.4,29.9,10.6,30.1,10.6"/>
	<path class="st1" d="M32.7,11.8c0.2,0,0.3-0.1,0.3-0.3s-0.1-0.3-0.3-0.3c-0.2,0-0.3,0.1-0.3,0.3S32.5,11.8,32.7,11.8"/>
	<path class="st1" d="M35.5,13.2c0.1,0,0.2-0.1,0.2-0.2s-0.1-0.2-0.2-0.2c-0.1,0-0.2,0.1-0.2,0.2l0,0C35.2,13.1,35.3,13.2,35.5,13.2
		"/>
	<path class="st1" d="M23.9,10.6c-0.2,0-0.4-0.2-0.4-0.4s0.2-0.4,0.4-0.4c0.2,0,0.4,0.2,0.4,0.4l0,0C24.3,10.4,24.1,10.6,23.9,10.6"
		/>
	<path class="st1" d="M21.3,11.8c-0.2,0-0.3-0.1-0.3-0.3s0.1-0.3,0.3-0.3c0.2,0,0.3,0.1,0.3,0.3C21.6,11.6,21.5,11.8,21.3,11.8"/>
	<path class="st1" d="M18.6,13.2c-0.1,0-0.2-0.1-0.2-0.2s0.1-0.2,0.2-0.2c0.1,0,0.2,0.1,0.2,0.2S18.7,13.2,18.6,13.2L18.6,13.2"/>
	<path class="st1" d="M27.1,15.2c0.2,0,0.3-0.2,0.3-0.4s-0.2-0.3-0.4-0.3s-0.3,0.2-0.3,0.4l0,0C26.7,15.1,26.9,15.2,27.1,15.2
		 M29.2,15.3c0.2,0,0.3-0.2,0.2-0.3c0-0.2-0.2-0.3-0.3-0.2c-0.2,0-0.3,0.2-0.2,0.3C28.9,15.2,29.1,15.3,29.2,15.3z M31,15.7
		c0.1,0,0.2-0.1,0.2-0.2c0-0.1-0.1-0.2-0.2-0.2c-0.1,0-0.2,0.1-0.2,0.2l0,0C30.8,15.7,30.9,15.7,31,15.7z M33,16.3
		c0.1,0,0.1-0.1,0.1-0.2c0-0.1-0.1-0.1-0.2-0.1c-0.1,0-0.1,0.1-0.1,0.2l0,0C32.8,16.3,32.9,16.3,33,16.3z M24.9,15.2
		c-0.2,0-0.3-0.2-0.2-0.3c0-0.2,0.2-0.3,0.3-0.2c0.2,0,0.3,0.2,0.2,0.3l0,0C25.2,15.2,25,15.3,24.9,15.2L24.9,15.2z M23.1,15.7
		c-0.1,0-0.2-0.1-0.2-0.2c0-0.1,0.1-0.2,0.2-0.2c0.1,0,0.2,0.1,0.2,0.2l0,0C23.3,15.7,23.2,15.7,23.1,15.7z M21.1,16.3
		c-0.1,0-0.1-0.1-0.1-0.2c0-0.1,0.1-0.1,0.2-0.1c0.1,0,0.1,0.1,0.1,0.2C21.3,16.3,21.2,16.3,21.1,16.3L21.1,16.3z M29.9,11
		c-1.6,2.5-2.6,1.8-2.8-0.9c-0.2,2.7-1.2,3.4-2.8,0.9c0.5,2.2-0.8,3.7-2.6,1.2c0.6,3.7-1.6,2.4-3,1c0.7,1.3,1.5,2.5,2.2,3.8
		c4.3-1.7,8.1-1.7,12.4,0c0.7-1.2,1.4-2.2,2.1-3.4c-1.2,1.3-3.2,2.3-2.8-1.3C30.6,14.7,29.4,13.2,29.9,11L29.9,11z"/>
	<path class="st1" d="M26.9,16c1.9,0,3.9,0.4,5.9,1.2l0.1,0l-0.1,0.1l-0.1,0.1l-0.1,0.1l0,0.1l-0.1,0c-2-0.8-3.9-1.2-5.7-1.2
		c-2,0-3.9,0.4-5.8,1.2l-0.2-0.4C22.9,16.4,24.8,16,26.9,16"/>
</g>
</svg>
