<?xml version="1.0"?>
<svg xmlns="http://www.w3.org/2000/svg" xmlns:xlink="http://www.w3.org/1999/xlink" xmlns:svgjs="http://svgjs.com/svgjs" version="1.1" width="512" height="512" x="0" y="0" viewBox="0 0 64 64" style="enable-background:new 0 0 512 512" xml:space="preserve" class=""><g><path xmlns="http://www.w3.org/2000/svg" d="m57.85 27h-.16c-.6 0-1.2.13-1.74.38l-10.95 5.06v-7.44c0-2.94-1.14-5.7-3.22-7.78-1.1-1.1-2.38-1.93-3.79-2.47 1.82-1.27 3.01-3.37 3.01-5.75 0-3.86-3.14-7-7-7s-7 3.14-7 7c0 2.38 1.19 4.48 3.01 5.75-4.1 1.6-7.01 5.59-7.01 10.25v1h-1c-.27 0-.52.11-.71.29l-3.7 3.71h-5.59v-1c0-.55-.45-1-1-1h-8c-.55 0-1 .45-1 1v14c0 .55.45 1 1 1h8c.55 0 1-.45 1-1h33c.17 0 .34-.04.49-.13l14.39-8.09c1.31-.74 2.12-2.13 2.12-3.62 0-2.3-1.86-4.16-4.15-4.16zm-47.85 15h-6v-12h6zm19-33c0-2.76 2.24-5 5-5s5 2.24 5 5c0 1.13-.37 2.17-1 3-1.1 0-2-.9-2-2h-2c0 1.53.85 2.85 2.12 3.53-.64.3-1.36.47-2.12.47-2.76 0-5-2.24-5-5zm-4 16c0-4.96 4.04-9 9-9 2.4 0 4.66.94 6.36 2.64s2.64 3.96 2.64 6.36v8h-3.76c.48-.72.76-1.57.76-2.5 0-2.48-2.02-4.5-4.5-4.5h-10.5zm33.9 8.03-14.16 7.97h-32.74v-9h6c.27 0 .52-.11.71-.29l3.7-3.71h13.09c1.38 0 2.5 1.12 2.5 2.5s-1.12 2.5-2.5 2.5h-8.5v2h17c.14 0 .29-.03.42-.09l12.37-5.71c.28-.13.59-.2.9-.2h.16c1.18 0 2.15.97 2.15 2.16 0 .77-.42 1.49-1.1 1.87z" fill="#ebcfa7" data-original="#000000" style="" class=""/><path xmlns="http://www.w3.org/2000/svg" d="m33 18h2v2h-2z" fill="#ebcfa7" data-original="#000000" style="" class=""/><path xmlns="http://www.w3.org/2000/svg" d="m33 22h2v2h-2z" fill="#ebcfa7" data-original="#000000" style="" class=""/><path xmlns="http://www.w3.org/2000/svg" d="m36 62h-8c-.552 0-1-.447-1-1v-6h-2c-.393 0-.749-.229-.911-.587s-.1-.776.158-1.071l7-8c.38-.436 1.125-.436 1.505 0l7 8c.258.295.32.714.158 1.071s-.517.587-.91.587h-2v6c0 .553-.448 1-1 1zm-7-2h6v-6c0-.553.448-1 1-1h.796l-4.796-5.481-4.796 5.481h.796c.552 0 1 .447 1 1z" fill="#ebcfa7" data-original="#000000" style="" class=""/><path xmlns="http://www.w3.org/2000/svg" d="m59 38h2v12h-2z" fill="#ebcfa7" data-original="#000000" style="" class=""/><path xmlns="http://www.w3.org/2000/svg" d="m59 52h2v2h-2z" fill="#ebcfa7" data-original="#000000" style="" class=""/><path xmlns="http://www.w3.org/2000/svg" d="m55 40h2v12h-2z" fill="#ebcfa7" data-original="#000000" style="" class=""/><path xmlns="http://www.w3.org/2000/svg" d="m55 54h2v2h-2z" fill="#ebcfa7" data-original="#000000" style="" class=""/><path xmlns="http://www.w3.org/2000/svg" d="m51 42h2v12h-2z" fill="#ebcfa7" data-original="#000000" style="" class=""/><path xmlns="http://www.w3.org/2000/svg" d="m51 56h2v2h-2z" fill="#ebcfa7" data-original="#000000" style="" class=""/></g></svg>
